<?xml version="1.0" encoding="iso-8859-1"?>
<!-- Generator: Adobe Illustrator 16.0.0, SVG Export Plug-In . SVG Version: 6.00 Build 0)  -->
<!DOCTYPE svg PUBLIC "-//W3C//DTD SVG 1.1//EN" "http://www.w3.org/Graphics/SVG/1.1/DTD/svg11.dtd">
<svg version="1.1" id="Capa_1" xmlns="http://www.w3.org/2000/svg" xmlns:xlink="http://www.w3.org/1999/xlink" x="0px" y="0px"
	 width="461.505px" height="461.505px" viewBox="0 0 461.505 461.505" style="enable-background:new 0 0 461.505 461.505;"
	 xml:space="preserve">
<g>
	<g>
		<path d="M241.517,214.998c0.137,0.461,0.108,0.864,0.133,1.289c16.174-1.445,33.967-6.164,52.666-16.206
			c1.105-11.625,5.013-26.353,6.691-32.482c2.417-8.878,4.838-26.227,6.861-32.682c2.02-6.456,2.02-19.775,2.02-19.775
			c-6.456-5.244-4.44-28.249-6.864-51.65c-2.429-23.401,0-35.103,0-35.103c-7.13-1.393-12.8-2.334-17.341-2.979
			c8.364,24.395-0.092,47.033-0.216,47.356l-3.848,9.874l-6.816-8.107l-23.68-28.2c-4.469,2.314-9.337,6.26-13.269,9.846
			c-1.143,28.086,2.22,56.122,1.05,84.184C237.847,165.268,233.976,190.731,241.517,214.998z"/>
		<path d="M251.375,36.854l5.559,6.62L279.62,70.48c0,0,8.691-22.474-0.882-45.925C275.319,16.164,269.613,7.654,260.252,0
			c0,0,0.537,3.49-1.884,10.487C255.952,17.49,251.644,31.48,251.375,36.854z"/>
		<path d="M151.621,115.141c0,0,0,13.312,2.018,19.775c2.02,6.456,4.438,23.812,6.861,32.682c1.697,6.218,5.701,21.257,6.738,32.953
			c10.423,5.805,32.603,15.866,61.404,16.246c1.1,0.014,2.224-0.02,3.334-0.036c-1.513-5.027-2.503-10.084-3.192-15.148
			c-2.757-20.215-0.038-40.689,0.433-61.251c0.609-26.667-1.831-53.269-1.083-79.928c-3.996-3.983-11.313-10.764-17.753-14.11
			l-23.68,28.2l-6.817,8.107l-3.847-9.874c-0.124-0.323-8.572-22.961-0.212-47.356c-4.538,0.645-10.211,1.587-17.34,2.979
			c0,0,2.418,11.702,0,35.103C156.062,86.887,158.077,109.897,151.621,115.141z"/>
		<path d="M137.098,345.133c-4.034,25.828-14.521,91.189-14.122,96.436c0.398,5.241,12.104,0.813,16.951,4.845
			c4.841,4.031,12.104,1.21,19.364,5.241c7.261,4.036,16.142,1.611,26.227,4.846c10.09,3.222,16.544-0.81,26.23,2.821
			c9.476,3.559,13.551,1.719,19.005,1.627c5.458,0.076,9.538,1.923,19.008-1.627c9.682-3.631,16.134,0.4,26.225-2.821
			c10.09-3.234,18.967-0.81,26.229-4.846c7.257-4.031,14.526-1.21,19.363-5.241c4.846-4.031,16.543,0.396,16.952-4.845
			c0.396-5.246-10.091-70.615-14.122-96.436c-4.032-25.827-2.017-14.122-7.262-51.651c-5.242-37.518-18.559-71.418-22.193-80.697
			c-0.561-1.419-0.789-3.351-0.897-5.47c-21.993,11.193-42.731,15.362-61.146,15.707c-0.838,0.016-1.699,0.078-2.522,0.078
			c-0.615,0-1.196-0.046-1.8-0.054c-27.423-0.378-49.113-9.077-61.147-15.302c-0.118,1.948-0.367,3.707-0.888,5.033
			c-3.635,9.279-16.948,43.172-22.191,80.706C139.117,331.011,141.133,319.317,137.098,345.133z"/>
		<path d="M182.766,24.562c-9.572,23.451-0.881,45.927-0.881,45.927l22.688-27.006l5.558-6.62
			c-0.269-5.374-4.576-19.364-6.995-26.361c-2.418-6.995-1.883-10.487-1.883-10.487C191.893,7.662,186.188,16.172,182.766,24.562z"
			/>
	</g>
</g>
<g>
</g>
<g>
</g>
<g>
</g>
<g>
</g>
<g>
</g>
<g>
</g>
<g>
</g>
<g>
</g>
<g>
</g>
<g>
</g>
<g>
</g>
<g>
</g>
<g>
</g>
<g>
</g>
<g>
</g>
</svg>
